<svg width="18" height="18" viewBox="0 0 18 18" fill="none" xmlns="http://www.w3.org/2000/svg">
<path d="M10.8921 4.56003L13.903 1.54912C14.6066 0.845484 15.7475 0.845484 16.4512 1.54912C17.1548 2.25276 17.1548 3.39367 16.4512 4.0973L13.4402 7.10821L15.0693 15.2146C15.1293 15.5128 15.0357 15.8209 14.8212 16.0364L14.2212 16.6364C13.7575 17.1 12.9693 16.9346 12.7312 16.3237L10.3457 10.2028L7.24934 13.2991L7.41479 15.2718C7.43752 15.5382 7.34115 15.8018 7.15206 15.9909L6.16479 16.9782L4.23661 13.7637L1.02206 11.8355L2.00934 10.8482C2.19843 10.6591 2.46115 10.5628 2.72843 10.5855L4.70115 10.7509L7.79752 7.65458L1.67752 5.26912C1.0657 5.03094 0.900246 4.24367 1.36388 3.77912L1.96388 3.17912C2.17934 2.96367 2.48752 2.87094 2.7857 2.93094L10.8921 4.56003V4.56003Z" stroke="white" stroke-linecap="round" stroke-linejoin="round"/>
</svg>
