<svg width="18" height="18" viewBox="0 0 18 18" fill="none" xmlns="http://www.w3.org/2000/svg">
<path d="M1.72743 6.27275C1.72743 3.54548 5.3638 0.818207 9.00016 0.818207C12.6365 0.818207 16.2729 3.54548 16.2729 6.27275C16.2729 6.27275 12.6365 6.27275 9.00016 6.27275C5.3638 6.27275 1.72743 6.27275 1.72743 6.27275Z" stroke="white" stroke-width="1.5" stroke-linecap="round" stroke-linejoin="round"/>
<path d="M9.00018 11.7273V6.27275" stroke="white" stroke-linecap="round" stroke-linejoin="round"/>
<path d="M6.27292 6.2273C6.27292 3.26548 7.49383 0.863663 9.00019 0.863663C10.5066 0.863663 11.7275 3.26548 11.7275 6.2273" stroke="white" stroke-linecap="round" stroke-linejoin="round"/>
<path d="M4.53658 14.4546L3.54567 17.1818" stroke="white" stroke-linecap="round" stroke-linejoin="round"/>
<path d="M12.5548 14.4546L13.5457 17.1818" stroke="white" stroke-linecap="round" stroke-linejoin="round"/>
<path d="M2.18204 14.4546H12.2711C13.2548 14.4546 14.212 14.1355 14.9984 13.5455L16.6366 12.3173C17.1066 11.9655 17.2975 11.3518 17.112 10.7955C16.8175 9.91276 15.7448 9.5773 15.0002 10.1355L13.362 11.3637C13.0475 11.6 12.6648 11.7273 12.2711 11.7273H2.18204C1.42931 11.7273 0.818405 12.3382 0.818405 13.0909C0.818405 13.8437 1.42931 14.4546 2.18204 14.4546V14.4546Z" stroke="white" stroke-linecap="round" stroke-linejoin="round"/>
</svg>
