<svg width="22" height="22" viewBox="0 0 22 22" fill="none" xmlns="http://www.w3.org/2000/svg">
<path d="M13.3893 14.6364H8.61108C8.3929 14.6364 8.18199 14.7146 8.01654 14.8573L4.78835 17.6473C3.49654 18.7637 1.51745 17.6482 1.80745 15.9664C2.3329 12.9182 2.86654 9.82095 3.39835 6.74367C3.69926 5.00095 5.21108 3.72731 6.98108 3.72731H15.0202C16.7893 3.72731 18.302 5.00095 18.6029 6.74458C19.1347 9.82185 19.6684 12.9191 20.1938 15.9673C20.4838 17.65 18.5038 18.7646 17.2129 17.6482L13.9847 14.8582C13.8184 14.7146 13.6074 14.6364 13.3893 14.6364Z" stroke="white" stroke-linecap="round" stroke-linejoin="round"/>
<path d="M5.54565 9.18185H9.18202" stroke="white" stroke-linecap="round" stroke-linejoin="round"/>
<path d="M7.36388 7.36368V11" stroke="white" stroke-linecap="round" stroke-linejoin="round"/>
<path d="M14.6357 7.1364C14.5103 7.1364 14.4085 7.23822 14.4094 7.36367C14.4094 7.48913 14.5112 7.59094 14.6366 7.59094C14.7621 7.59094 14.8639 7.48913 14.8639 7.36367C14.8639 7.23822 14.7621 7.1364 14.6357 7.1364Z" stroke="white" stroke-linecap="round" stroke-linejoin="round"/>
<path d="M16.4538 8.95457C16.3283 8.95457 16.2265 9.05639 16.2274 9.18185C16.2274 9.3073 16.3293 9.40912 16.4547 9.40912C16.5802 9.40912 16.682 9.3073 16.682 9.18185C16.682 9.05639 16.5802 8.95457 16.4538 8.95457Z" stroke="white" stroke-linecap="round" stroke-linejoin="round"/>
<path d="M14.6357 10.7728C14.5103 10.7728 14.4085 10.8746 14.4094 11C14.4094 11.1255 14.5112 11.2273 14.6366 11.2273C14.7621 11.2273 14.8639 11.1255 14.8639 11C14.8639 10.8746 14.7621 10.7728 14.6357 10.7728Z" stroke="white" stroke-linecap="round" stroke-linejoin="round"/>
<path d="M12.8175 8.95457C12.6921 8.95457 12.5902 9.05639 12.5911 9.18185C12.5911 9.3073 12.693 9.40912 12.8184 9.40912C12.9439 9.40912 13.0457 9.3073 13.0457 9.18185C13.0457 9.05639 12.9439 8.95457 12.8175 8.95457Z" stroke="white" stroke-linecap="round" stroke-linejoin="round"/>
</svg>
