<svg width="22" height="22" viewBox="0 0 22 22" fill="none" xmlns="http://www.w3.org/2000/svg">
<path d="M11.0003 4.63638C8.64298 7.15275 8.64298 11.2109 11.0003 13.7273C13.3575 11.2109 13.3575 7.15275 11.0003 4.63638Z" stroke="white" stroke-linecap="round" stroke-linejoin="round"/>
<path d="M11.0002 4.63638C13.5165 4.63638 15.5456 6.66547 15.5456 9.18184C15.5456 11.6982 13.5165 13.7273 11.0002 13.7273" stroke="white" stroke-linecap="round" stroke-linejoin="round"/>
<path d="M11.0003 13.7273C8.48393 13.7273 6.45483 11.6982 6.45483 9.18184C6.45483 6.66547 8.48393 4.63638 11.0003 4.63638" stroke="white" stroke-linecap="round" stroke-linejoin="round"/>
<path d="M6.45483 9.18185H15.5457" stroke="white" stroke-linecap="round" stroke-linejoin="round"/>
<path d="M16.2529 20.0909H5.74742C4.63196 20.0909 3.72742 19.1864 3.72742 18.0709V3.92912C3.72742 2.81366 4.63196 1.90912 5.74742 1.90912H16.2529C17.3683 1.90912 18.2729 2.81366 18.2729 3.92912V18.0709C18.2729 19.1864 17.3683 20.0909 16.2529 20.0909Z" stroke="white" stroke-linecap="round" stroke-linejoin="round"/>
<path d="M13.7274 16.9091H8.27289" stroke="white" stroke-linecap="round" stroke-linejoin="round"/>
</svg>
