<svg width="22" height="22" viewBox="0 0 22 22" fill="none" xmlns="http://www.w3.org/2000/svg">
<path d="M15.5457 19.1819H6.45481C5.45026 19.1819 4.63663 18.3682 4.63663 17.3637V8.27277C4.63663 7.26823 5.45026 6.45459 6.45481 6.45459H15.5457C16.5503 6.45459 17.3639 7.26823 17.3639 8.27277V17.3637C17.3639 18.3682 16.5503 19.1819 15.5457 19.1819Z" stroke="white" stroke-linecap="round" stroke-linejoin="round"/>
<path d="M9.18211 9.18185H12.8185" stroke="white" stroke-linecap="round" stroke-linejoin="round"/>
<path d="M7.36388 19.1819V20.0909" stroke="white" stroke-linecap="round" stroke-linejoin="round"/>
<path d="M14.6366 19.1819V20.0909" stroke="white" stroke-linecap="round" stroke-linejoin="round"/>
<path d="M14.6366 6.45457V3.7273C14.6366 2.72275 13.823 1.90912 12.8184 1.90912H9.18206C8.17751 1.90912 7.36388 2.72275 7.36388 3.7273V6.45457" stroke="white" stroke-linecap="round" stroke-linejoin="round"/>
<path d="M11.0002 11.9091V16.4546" stroke="white" stroke-linecap="round" stroke-linejoin="round"/>
<path d="M7.36388 11.9091V16.4546" stroke="white" stroke-linecap="round" stroke-linejoin="round"/>
<path d="M14.6366 11.9091V16.4546" stroke="white" stroke-linecap="round" stroke-linejoin="round"/>
</svg>
